<?xml version="1.0" standalone="no"?>
<!DOCTYPE svg PUBLIC "-//W3C//DTD SVG 20010904//EN"
 "http://www.w3.org/TR/2001/REC-SVG-20010904/DTD/svg10.dtd">
<svg version="1.0" xmlns="http://www.w3.org/2000/svg"
 width="780.000000pt" height="780.000000pt" viewBox="0 0 780.000000 780.000000"
 preserveAspectRatio="xMidYMid meet">
<metadata>
Created by potrace 1.14, written by Peter Selinger 2001-2017
</metadata>
<g transform="translate(0.000000,780.000000) scale(0.100000,-0.100000)"
fill="#000000" stroke="none">
<path d="M0 3900 l0 -3900 3900 0 3900 0 0 3900 0 3900 -3900 0 -3900 0 0
-3900z m4324 3215 c208 -28 591 -118 618 -144 5 -4 -63 -47 -150 -96 -430
-242 -564 -315 -577 -315 -7 0 -17 5 -20 10 -14 23 -128 70 -193 81 -279 46
-532 -209 -485 -487 14 -80 50 -157 102 -216 39 -44 40 -45 43 -141 l3 -97
-407 0 -408 0 0 -630 0 -630 273 0 272 0 0 -472 0 -473 221 -3 221 -2 7 -143
c4 -78 9 -171 13 -205 6 -64 6 -64 34 -58 24 5 28 2 31 -22 4 -35 39 -52 113
-52 l60 -1 -91 -43 c-79 -38 -134 -81 -134 -107 0 -4 8 -15 17 -25 15 -14 31
-16 110 -11 51 3 93 4 93 1 0 -2 -18 -13 -40 -24 -35 -18 -58 -20 -201 -20
l-162 0 7 -813 c4 -446 11 -816 15 -820 4 -4 190 -4 412 1 378 9 409 11 474
32 277 89 487 308 561 585 27 100 25 311 -4 416 -75 277 -316 512 -593 579
-68 16 -119 20 -274 20 l-190 1 30 24 c25 20 28 28 19 42 -9 14 -27 19 -83 21
-39 2 -71 7 -71 12 0 4 33 26 73 48 147 80 153 85 140 118 -5 14 -16 15 -77 8
-39 -5 -98 -8 -131 -9 -53 0 -60 2 -60 20 0 17 8 20 54 23 l53 3 -6 42 c-3 23
-8 113 -12 199 l-7 158 229 2 229 3 0 50 c1 28 2 240 3 473 l2 422 270 0 270
0 0 630 0 630 -405 0 -405 0 0 95 0 95 40 42 c23 24 55 72 73 108 30 61 32 71
34 183 l1 119 174 97 c95 54 296 166 447 250 l274 153 141 -72 c962 -494 1613
-1445 1731 -2527 25 -238 19 -588 -16 -818 -57 -381 -187 -768 -366 -1089
-344 -618 -880 -1111 -1518 -1394 -681 -302 -1445 -361 -2165 -166 -399 108
-769 291 -1113 551 -128 97 -144 111 -310 273 -528 514 -856 1193 -941 1942
-18 159 -21 514 -6 669 118 1173 854 2184 1931 2652 297 130 631 217 969 252
166 18 573 12 734 -10z m171 -4859 c66 -30 112 -77 148 -154 27 -58 29 -70 25
-145 -5 -96 -25 -142 -90 -204 -66 -65 -116 -82 -257 -90 l-121 -6 0 311 0
311 78 3 c113 4 161 -1 217 -26z"/>
<path d="M2690 2530 l0 -250 198 -2 c189 -3 197 -4 197 -23 0 -19 -8 -20 -139
-23 l-139 -3 6 -82 c4 -45 7 -160 7 -254 l0 -172 148 -3 147 -3 3 -26 3 -26
-203 -7 c-112 -4 -206 -10 -209 -14 -3 -4 -4 -116 -1 -249 l4 -243 222 0 c163
0 238 4 286 16 164 38 317 177 377 341 51 140 39 301 -32 430 l-34 62 25 54
c76 168 44 388 -78 533 -50 59 -116 113 -175 143 -86 43 -144 51 -385 51
l-228 0 0 -250z"/>
</g>
</svg>
